<svg width="24" height="16" viewBox="0 0 24 16" fill="none" xmlns="http://www.w3.org/2000/svg">
<path d="M23.9429 0.0615234H0.0618286V15.9432H23.9429V0.0615234Z" fill="#1F429B"/>
<path d="M23.8811 0.118308V15.8817H0.118883V0.118308H23.8811ZM24 0H0V16H24V0Z" fill="#878889"/>
<path d="M0.118896 15.8864H2.77709L23.8811 1.88346V0.123016H21.2229L0.118896 14.126V15.8864Z" fill="white"/>
<path d="M23.8811 15.8864H21.2229L0.118896 1.88346V0.123016H2.77709L23.8811 14.126V15.8864Z" fill="white"/>
<path d="M13.9806 0.118301H10.0194V15.8817H13.9806V0.118301Z" fill="white"/>
<path d="M23.8811 5.37593H0.118896V10.6288H23.8811V5.37593Z" fill="white"/>
<path d="M23.8811 6.42648H0.118896V9.57823H23.8811V6.42648Z" fill="#ED1C24"/>
<path d="M13.1912 0.118301H10.8135V15.8817H13.1912V0.118301Z" fill="#ED1C24"/>
<path d="M0.118896 15.8864H1.88786L9.81021 10.6335H8.04125L0.118896 15.8864Z" fill="#ED1C24"/>
<path d="M14.1898 5.37591H15.9588L23.8811 0.118301H22.1122L14.1946 5.37591H14.1898Z" fill="#ED1C24"/>
<path d="M23.8811 15.8864V14.7128L17.7325 10.6335H15.9635L23.8859 15.8864H23.8811Z" fill="#ED1C24"/>
<path d="M0.118896 0.118308V1.29192L6.26747 5.37118H8.03649L0.114136 0.113571L0.118896 0.118308Z" fill="#ED1C24"/>
<rect x="0.5" y="0.5" width="23" height="15" stroke="#DCDFE9"/>
</svg>
